<svg width="142" height="142" viewBox="0 0 142 142" fill="none" xmlns="http://www.w3.org/2000/svg">
<rect x="0.996429" y="71" width="99" height="99" rx="19.5" transform="rotate(-45 0.996429 71)" fill="white" stroke="#E2E2E2"/>
<path d="M58.5353 94C55.8868 94 54.0091 93.2308 52.9022 91.6923C51.8349 90.1134 51.3013 87.7449 51.3013 84.587C51.3013 82.6437 51.5978 79.749 52.1907 75.9028C52.7837 72.0567 53.6335 67.0162 54.7404 60.7814C53.8312 60.9028 52.6651 61.085 51.242 61.3279C49.8584 61.5708 48.4551 61.834 47.0321 62.1174C45.609 62.3603 44.4231 62.6032 43.4744 62.8462C43.2372 62.0769 43.0988 61.3279 43.0593 60.5992C43.0198 59.8704 43 59.3036 43 58.8988C43 56.5911 43.3953 54.7085 44.1859 53.251C45.016 51.7935 46.1031 50.7206 47.4471 50.0324C48.7911 49.3441 50.2537 49 51.8349 49C53.851 49 55.8472 49.2024 57.8237 49.6073C59.8002 49.9717 61.7767 50.3563 63.7532 50.7611C65.7692 51.166 67.8248 51.4089 69.9199 51.4899C71.3825 51.2065 73.0032 50.8421 74.782 50.3968C76.6004 49.9514 78.1816 49.5263 79.5256 49.1215C79.7628 49.8907 79.9012 50.6397 79.9407 51.3684C79.9802 52.0972 80 52.664 80 53.0688C80 55.3765 79.5454 57.2591 78.6362 58.7166C77.7666 60.1741 76.5807 61.247 75.0785 61.9352C73.6159 62.6235 71.9952 62.9676 70.2163 62.9676C69.7025 62.9676 69.2083 62.9676 68.734 62.9676C68.2596 62.9271 67.805 62.8866 67.3702 62.8462C67.0144 64.668 66.6389 66.5708 66.2436 68.5547C65.8878 70.5385 65.5518 72.4615 65.2356 74.3239C64.9193 76.1457 64.6426 77.7854 64.4054 79.2429C64.2078 80.6599 64.109 81.7328 64.109 82.4615C64.109 84.5263 64.2473 86.2672 64.524 87.6842C64.8403 89.1012 65.2949 90.2955 65.8878 91.2672C63.516 93.0891 61.0652 94 58.5353 94Z" fill="#131313"/>
<path d="M83.4647 48C86.1132 48 87.9909 48.7692 89.0978 50.3077C90.1651 51.8866 90.6987 54.2551 90.6987 57.413C90.6987 59.3563 90.4022 62.251 89.8093 66.0972C89.2163 69.9433 88.3665 74.9838 87.2596 81.2186C88.1688 81.0972 89.3349 80.915 90.758 80.6721C92.1416 80.4292 93.5449 80.166 94.9679 79.8826C96.391 79.6397 97.5769 79.3968 98.5256 79.1538C98.7628 79.9231 98.9012 80.6721 98.9407 81.4008C98.9802 82.1296 99 82.6964 99 83.1012C99 85.4089 98.6047 87.2915 97.8141 88.749C96.984 90.2065 95.8969 91.2794 94.5529 91.9676C93.2089 92.6559 91.7463 93 90.1651 93C88.149 93 86.1528 92.7976 84.1763 92.3927C82.1998 92.0283 80.2233 91.6437 78.2468 91.2389C76.2308 90.834 74.1752 90.5911 72.0801 90.5101C70.6175 90.7935 68.9968 91.1579 67.218 91.6032C65.3996 92.0486 63.8184 92.4737 62.4744 92.8785C62.2372 92.1093 62.0988 91.3603 62.0593 90.6316C62.0198 89.9028 62 89.336 62 88.9312C62 86.6235 62.4546 84.7409 63.3638 83.2834C64.2334 81.8259 65.4193 80.753 66.9215 80.0648C68.3841 79.3765 70.0048 79.0324 71.7837 79.0324C72.2975 79.0324 72.7917 79.0324 73.266 79.0324C73.7404 79.0729 74.195 79.1134 74.6298 79.1538C74.9856 77.332 75.3611 75.4292 75.7564 73.4453C76.1122 71.4615 76.4482 69.5385 76.7644 67.6761C77.0807 65.8543 77.3574 64.2146 77.5946 62.7571C77.7922 61.3401 77.891 60.2672 77.891 59.5385C77.891 57.4737 77.7527 55.7328 77.476 54.3158C77.1597 52.8988 76.7051 51.7045 76.1122 50.7328C78.484 48.9109 80.9348 48 83.4647 48Z" fill="#131313" fill-opacity="0.9"/>
</svg>
