<svg width="100" height="100" viewBox="0 0 100 100" fill="none" xmlns="http://www.w3.org/2000/svg">
<rect width="100" height="100" rx="20" fill="white"/>
<path d="M33.0836 81C29.4892 81 26.9409 79.9632 25.4387 77.8896C23.9902 75.7615 23.2661 72.5692 23.2661 68.3129C23.2661 65.6937 23.6684 61.7921 24.4731 56.6081C25.2779 51.4242 26.4312 44.6305 27.9334 36.2271C26.6995 36.3907 25.1169 36.6363 23.1856 36.9637C21.3078 37.2911 19.4034 37.6458 17.4721 38.0278C15.5408 38.3552 13.9313 38.6826 12.6438 39.0101C12.3219 37.9732 12.1341 36.9637 12.0805 35.9815C12.0269 34.9992 12 34.2353 12 33.6897C12 30.5793 12.5365 28.0419 13.6094 26.0774C14.736 24.113 16.2114 22.6669 18.0354 21.7393C19.8594 20.8116 21.8443 20.3478 23.9902 20.3478C26.7264 20.3478 29.4355 20.6206 32.1179 21.1664C34.8003 21.6575 37.4827 22.1759 40.1651 22.7215C42.9011 23.2672 45.6908 23.5946 48.5342 23.7038C50.5191 23.3218 52.7186 22.8307 55.1327 22.2305C57.6005 21.6301 59.7465 21.0572 61.5705 20.5116C61.8924 21.5483 62.0802 22.5579 62.1338 23.54C62.1874 24.5223 62.2143 25.2863 62.2143 25.8319C62.2143 28.9422 61.5973 31.4797 60.3634 33.4441C59.1832 35.4086 57.5738 36.8547 55.5351 37.7822C53.5502 38.7099 51.3506 39.1737 48.9364 39.1737C48.2391 39.1737 47.5684 39.1737 46.9247 39.1737C46.2809 39.1191 45.6639 39.0645 45.0738 39.0101C44.591 41.4656 44.0814 44.0302 43.5449 46.7042C43.062 49.378 42.606 51.9698 42.1769 54.48C41.7476 56.9355 41.3721 59.1455 41.0502 61.11C40.782 63.0199 40.6479 64.4659 40.6479 65.4481C40.6479 68.2311 40.8356 70.5775 41.2111 72.4874C41.6404 74.3973 42.2574 76.007 43.062 77.3167C39.8431 79.7723 36.5171 81 33.0836 81Z" fill="#1E1E1E"/>
<path d="M66.9164 19C70.5108 19 73.0591 20.0367 74.5613 22.1104C76.0098 24.2385 76.734 27.4308 76.734 31.6871C76.734 34.3063 76.3316 38.2079 75.5269 43.3919C74.7221 48.5757 73.5688 55.3695 72.0666 63.7729C73.3005 63.6093 74.8831 63.3637 76.8144 63.0363C78.6922 62.7089 80.5967 62.3542 82.5279 61.9722C84.4592 61.6448 86.0686 61.3174 87.3562 60.9899C87.6781 62.0268 87.8659 63.0363 87.9195 64.0185C87.9731 65.0008 88 65.7647 88 66.3103C88 69.4207 87.4635 71.9581 86.3906 73.9226C85.264 75.887 83.7887 77.3331 81.9647 78.2607C80.1407 79.1884 78.1557 79.6522 76.0098 79.6522C73.2736 79.6522 70.5645 79.3794 67.8821 78.8336C65.1997 78.3425 62.5173 77.8241 59.8349 77.2785C57.0989 76.7328 54.3092 76.4054 51.4659 76.2962C49.4809 76.6782 47.2814 77.1693 44.8673 77.7695C42.3995 78.3699 40.2535 78.9428 38.4295 79.4884C38.1076 78.4517 37.9198 77.4421 37.8662 76.46C37.8126 75.4777 37.7857 74.7137 37.7857 74.1681C37.7857 71.0578 38.4027 68.5203 39.6366 66.5559C40.8168 64.5914 42.4262 63.1453 44.4649 62.2178C46.4499 61.2901 48.6494 60.8263 51.0636 60.8263C51.7609 60.8263 52.4316 60.8263 53.0753 60.8263C53.7191 60.8809 54.3361 60.9355 54.9262 60.9899C55.409 58.5344 55.9186 55.9698 56.4551 53.2958C56.938 50.622 57.394 48.0302 57.8231 45.52C58.2524 43.0645 58.6279 40.8545 58.9498 38.89C59.218 36.9801 59.3521 35.5341 59.3521 34.5519C59.3521 31.7689 59.1644 29.4225 58.7889 27.5126C58.3596 25.6027 57.7426 23.993 56.938 22.6833C60.1569 20.2277 63.4829 19 66.9164 19Z" fill="#1E1E1E" fill-opacity="0.9"/>
</svg>
